M48
METRIC,0000.00
T01C0.486
T02C0.559
T03C0.75
T04C0.8
T05C0.85
T06C0.9
T07C1.0
T08C1.2
T09C1.3
T10C1.4
T11C3.0
%
T01
X+003562Y+003244
X+003689Y+003100
X+004191Y+002984
X+004452Y+003148
X+004826Y+002984
X+005342Y+002480
X+005588Y+002794
X+006090Y+002957
X+006477Y+002921
X+006604Y+002794
X+006604Y+003302
X+006350Y+003302
X+005650Y+003775
X+005650Y+004834
X+006795Y+004254
X+007048Y+004127
X+007683Y+004509
X+007430Y+002730
X+006922Y+001524
X+006159Y+002350
X+004572Y+004127
X+004191Y+004572
X+003800Y+004516
X+003800Y+004134
X+003005Y+004150
X+003069Y+002512
X+003683Y+002359
X+003302Y+001841
X+002798Y+001224
X+002032Y+001968
X+002290Y+002480
X+001113Y+003959
X+001081Y+004468
T02
X+001524Y+001841
X+001524Y+001270
X+000762Y+001270
X+002286Y+001841
X+002114Y+003880
X+002114Y+004642
T03
X+002032Y+001397
X+002032Y+001547
T04
X+005652Y+002159
X+005452Y+002159
X+006087Y+002159
X+006287Y+002159
X+006796Y+005024
X+006996Y+005024
T05
X+001542Y+004643
X+001542Y+003881
T06
X+001905Y+003238
X+002159Y+003238
X+002540Y+003429
X+002794Y+003429
X+003048Y+003429
X+003302Y+003429
X+003556Y+003429
X+003810Y+003429
X+004064Y+003429
X+004318Y+003429
X+004699Y+003427
X+004953Y+003427
X+005207Y+003427
X+005461Y+003427
X+005715Y+003427
X+005969Y+003427
X+006223Y+003427
X+006477Y+003427
X+006795Y+003365
X+006795Y+003111
X+007048Y+003111
X+007302Y+003111
X+007302Y+003365
X+007048Y+003365
X+007048Y+003620
X+007302Y+003620
X+007556Y+003620
X+007556Y+003365
X+007556Y+003111
X+007556Y+002857
X+007302Y+002857
X+007048Y+002857
X+007048Y+002603
X+007302Y+002603
X+007302Y+002349
X+007048Y+002349
X+007048Y+002095
X+007302Y+002095
X+007302Y+001841
X+007048Y+001841
X+006795Y+001841
X+006795Y+002095
X+006795Y+002349
X+006795Y+002603
X+006795Y+002857
X+006477Y+002667
X+006223Y+002667
X+005969Y+002667
X+005715Y+002667
X+005461Y+002667
X+005207Y+002667
X+004953Y+002667
X+004699Y+002667
X+004318Y+002669
X+004064Y+002669
X+003810Y+002669
X+003556Y+002669
X+003302Y+002669
X+003048Y+002669
X+002794Y+002669
X+002540Y+002669
X+002540Y+002157
X+002794Y+002157
X+003048Y+002157
X+003302Y+002157
X+003556Y+002157
X+003810Y+002157
X+004064Y+002157
X+004318Y+002157
X+004318Y+001397
X+004064Y+001397
X+003810Y+001397
X+003556Y+001397
X+003302Y+001397
X+003048Y+001397
X+002794Y+001397
X+002540Y+001397
X+002413Y+001016
X+002413Y+000762
X+002413Y+000508
X+002413Y+000254
X+002667Y+000254
X+002921Y+000254
X+003175Y+000254
X+003429Y+000254
X+003429Y+000508
X+003175Y+000508
X+003175Y+000762
X+003429Y+000762
X+003429Y+001016
X+003175Y+001016
X+002921Y+001016
X+002667Y+001016
X+002667Y+000762
X+002921Y+000762
X+002921Y+000508
X+002667Y+000508
X+002159Y+000508
X+002159Y+000762
X+002159Y+001016
X+001905Y+001016
X+001651Y+001016
X+001651Y+000762
X+001905Y+000762
X+001905Y+000508
X+001651Y+000508
X+001651Y+000254
X+001905Y+000254
X+002159Y+000254
X+001397Y+000254
X+001397Y+000508
X+001397Y+000762
X+001397Y+001016
X+001080Y+001016
X+001080Y+000762
X+001080Y+000508
X+001080Y+000254
X+000318Y+000254
X+000318Y+000508
X+000318Y+000762
X+000318Y+001016
X+001905Y+002228
X+002159Y+002228
X+002540Y+003939
X+002794Y+003939
X+003048Y+003939
X+003302Y+003939
X+003556Y+003939
X+003810Y+003939
X+004064Y+003939
X+004318Y+003939
X+004762Y+003937
X+005016Y+003937
X+005271Y+003937
X+005525Y+003937
X+005778Y+003937
X+006032Y+003937
X+006287Y+003937
X+006541Y+003937
X+006794Y+003937
X+007048Y+003937
X+007302Y+003937
X+007556Y+003937
X+007556Y+004699
X+007302Y+004699
X+007048Y+004699
X+006794Y+004699
X+006541Y+004699
X+006287Y+004699
X+006032Y+004699
X+005778Y+004699
X+005525Y+004699
X+005271Y+004699
X+005016Y+004699
X+004762Y+004699
X+004724Y+005080
X+004978Y+005080
X+005232Y+005080
X+005486Y+005080
X+005740Y+005080
X+005994Y+005080
X+006248Y+005080
X+006502Y+005080
X+006795Y+003620
X+007556Y+002603
X+007556Y+002349
X+007556Y+002095
X+007556Y+001841
X+006287Y+001524
X+006032Y+001524
X+005778Y+001524
X+005524Y+001524
X+005207Y+001016
X+005207Y+000762
X+005207Y+000508
X+004953Y+000508
X+004699Y+000508
X+004699Y+000762
X+004953Y+000762
X+004953Y+001016
X+004699Y+001016
X+004445Y+001016
X+004445Y+000762
X+004445Y+000508
X+004445Y+000254
X+004191Y+000254
X+003937Y+000254
X+003683Y+000254
X+003683Y+000508
X+003937Y+000508
X+003937Y+000762
X+003683Y+000762
X+003683Y+001016
X+003937Y+001016
X+004191Y+001016
X+004191Y+000762
X+004191Y+000508
X+004699Y+000254
X+005207Y+000254
X+005461Y+000254
X+005715Y+000254
X+005969Y+000254
X+006223Y+000254
X+006477Y+000254
X+006287Y+000762
X+006032Y+000762
X+005778Y+000762
X+005524Y+000762
X+004318Y+004699
X+004064Y+004699
X+003810Y+004699
X+003556Y+004699
X+003302Y+004699
X+003048Y+004699
X+002794Y+004699
X+002540Y+004699
X+002540Y+005080
X+002794Y+005080
X+003048Y+005080
X+003302Y+005080
X+003556Y+005080
X+003810Y+005080
X+004064Y+005080
X+004318Y+005080
T07
X+004643Y+002178
X+004643Y+001844
X+005151Y+001844
X+005151Y+002178
X+007311Y+000698
X+007811Y+000198
X+007811Y+001198
X+007791Y+004993
X+007283Y+004993
T08
X+007811Y+000698
X+007311Y+000448
X+007311Y+000198
X+007311Y+000948
X+007311Y+001198
T09
X+000413Y+003943
X+000413Y+004451
X+000413Y+004959
T10
X+000127Y+003048
X+000127Y+002048
X+001127Y+001798
X+001377Y+002048
X+001127Y+002548
X+001377Y+003048
X+001127Y+003298
T11
X+001651Y+005080
X+006731Y+000762
T00
M30
