G04 DipTrace 2.2.0.9*
%INTopSilk.gbr*%
%MOMM*%
%ADD10C,0.25*%
%ADD69C,0.196*%
%ADD70C,0.235*%
%ADD71C,0.157*%
%FSLAX53Y53*%
%SFA1B1*%
%OFA0B0*%
G04*
G71*
G90*
G75*
G01*
%LNTopSilk*%
%LPD*%
X46967Y20533D2*
D10*
Y20713D1*
Y22853D2*
Y23033D1*
X50965Y22853D2*
Y23033D1*
Y20533D2*
Y20713D1*
X46967Y23033D2*
X50965D1*
X46967Y20533D2*
X50965D1*
X53015Y21590D2*
G02X53015Y21590I2500J0D01*
G01*
X56555Y20450D2*
Y19850D1*
X56855Y20150D2*
X56255D1*
X46967Y17194D2*
Y17374D1*
Y19514D2*
Y19694D1*
X50965Y19514D2*
Y19694D1*
Y17194D2*
Y17374D1*
X46967Y19694D2*
X50965D1*
X46967Y17194D2*
X50965D1*
X59365Y21590D2*
G02X59365Y21590I2500J0D01*
G01*
X62905Y20450D2*
Y19850D1*
X63205Y20150D2*
X62605D1*
X66458Y50244D2*
G02X66458Y50244I2500J0D01*
G01*
X69998Y49104D2*
Y48504D1*
X70298Y48804D2*
X69698D1*
X77367Y51176D2*
Y50996D1*
Y48856D2*
Y48676D1*
X73369Y48856D2*
Y48676D1*
Y51176D2*
Y50996D1*
X77367Y48676D2*
X73369D1*
X77367Y51176D2*
X73369D1*
X20320Y16720D2*
G02X20320Y16720I0J-2000D01*
G01*
X20620Y11920D2*
X20020D1*
X20320Y11620D2*
Y12220D1*
X17900Y29887D2*
X20200D1*
Y24783D1*
X17900Y29039D2*
X20200D1*
X17900Y24783D2*
X20200D1*
X17900Y29887D2*
Y24783D1*
X20440Y29887D2*
X22740D1*
Y24783D1*
X20440Y29039D2*
X22740D1*
X20440Y24783D2*
X22740D1*
X20440Y29887D2*
Y24783D1*
X16129Y44073D2*
Y41163D1*
X14717Y44073D2*
Y41163D1*
X16129Y44073D2*
X14717D1*
Y41163D2*
X16129D1*
X16123Y43618D2*
X14723D1*
X33240Y3590D2*
X48040D1*
Y1490D1*
X33240D1*
Y3590D1*
X51020D2*
X65820D1*
Y1490D1*
X51020D1*
Y3590D1*
X46184Y51850D2*
X66084D1*
Y49750D1*
X46184D1*
Y51850D1*
X24340D2*
X44240D1*
Y49750D1*
X24340D1*
Y51850D1*
X70605Y985D2*
X81605D1*
Y12985D1*
X70605D1*
Y985D1*
X81605Y2485D2*
X82604D1*
Y11485D1*
X81605D1*
Y2485D1*
X83605Y3985D2*
X84605D1*
Y9985D1*
X83605D1*
Y3985D1*
X82604Y4185D2*
X83605D1*
Y9785D1*
X82604D1*
Y4185D1*
X-1230Y14480D2*
X14270D1*
Y36480D1*
X-1230D1*
Y14480D1*
Y17481D2*
X-229D1*
Y33479D1*
X-1230D1*
Y17481D1*
X1069Y25480D2*
X-229Y24180D1*
X1069Y25480D2*
X-229Y26780D1*
X17014Y19177D2*
Y17653D1*
X21086Y19177D2*
X17014D1*
X21086D2*
Y17653D1*
X17014D1*
X20383Y40570D2*
X21907D1*
X20383Y44642D2*
Y40570D1*
Y44642D2*
X21907D1*
Y40570D1*
X13466Y11938D2*
Y13462D1*
X9394Y11938D2*
X13466D1*
X9394D2*
Y13462D1*
X13466D1*
X33230Y11210D2*
X53130D1*
Y9110D1*
X33230D1*
Y11210D1*
X12910Y8670D2*
X32810D1*
Y6570D1*
X12910D1*
Y8670D1*
X33230D2*
X53130D1*
Y6570D1*
X33230D1*
Y8670D1*
X12910Y6130D2*
X32810D1*
Y4030D1*
X12910D1*
Y6130D1*
Y3590D2*
X32810D1*
Y1490D1*
X12910D1*
Y3590D1*
X64055Y8830D2*
X54055D1*
Y14030D2*
Y8830D1*
X64055Y14030D2*
X54055D1*
X64055D2*
Y12030D1*
Y8830D2*
Y10830D1*
Y12030D2*
G03X64055Y10830I0J-600D01*
G01*
X24090Y20370D2*
X44490D1*
Y15170D2*
Y20370D1*
X24090Y15170D2*
X44490D1*
X24090D2*
Y17170D1*
Y20370D2*
Y18370D1*
Y17170D2*
G03X24090Y18370I0J600D01*
G01*
X45995Y45780D2*
X77195D1*
Y40580D2*
Y45780D1*
X45995Y40580D2*
X77195D1*
X45995D2*
Y42580D1*
Y45780D2*
Y43780D1*
Y42580D2*
G03X45995Y43780I-1J600D01*
G01*
X12910Y11210D2*
X32810D1*
Y9110D1*
X12910D1*
Y11210D1*
X33230Y6130D2*
X53130D1*
Y4030D1*
X33230D1*
Y6130D1*
X71535Y37255D2*
X69435D1*
Y17355D1*
X71535D1*
Y37255D1*
X71975Y17355D2*
X74075D1*
Y37255D1*
X71975D1*
Y17355D1*
X66895D2*
X68995D1*
Y37255D1*
X66895D1*
Y17355D1*
X74515D2*
X76615D1*
Y37255D1*
X74515D1*
Y17355D1*
X24090Y45790D2*
X44490D1*
Y40590D2*
Y45790D1*
X24090Y40590D2*
X44490D1*
X24090D2*
Y42590D1*
Y45790D2*
Y43790D1*
Y42590D2*
G03X24090Y43790I0J600D01*
G01*
X44490Y27890D2*
X24090D1*
Y33090D2*
Y27890D1*
X44490Y33090D2*
X24090D1*
X44490D2*
Y31090D1*
Y27890D2*
Y29890D1*
Y31090D2*
G03X44490Y29890I0J-600D01*
G01*
X45680Y33070D2*
X66080D1*
Y27870D2*
Y33070D1*
X45680Y27870D2*
X66080D1*
X45680D2*
Y29870D1*
Y33070D2*
Y31070D1*
Y29870D2*
G03X45680Y31070I0J600D01*
G01*
X9585Y11350D2*
Y1350D1*
X4385D2*
X9585D1*
X4385Y11350D2*
Y1350D1*
Y11350D2*
X6385D1*
X9585D2*
X7585D1*
X6385D2*
G03X7585Y11350I600J0D01*
G01*
X8632Y38261D2*
X6507D1*
X8632Y50763D2*
X6457D1*
X8632Y38261D2*
Y50763D1*
X2357Y39612D2*
Y49412D1*
X1332Y41512D2*
X-4378D1*
Y47512D1*
X1332D1*
Y41512D1*
X2333Y40412D2*
X1332D1*
X2333Y48612D2*
X1332D1*
Y40412D2*
Y48612D1*
X46449Y24649D2*
D69*
X46571Y24710D1*
D2*
X46754Y24891D1*
D2*
Y23617D1*
X47511Y24891D2*
X47329Y24831D1*
D2*
X47206Y24649D1*
D2*
X47146Y24345D1*
D2*
Y24163D1*
D2*
X47206Y23860D1*
D2*
X47329Y23677D1*
D2*
X47511Y23617D1*
D2*
X47632D1*
D2*
X47814Y23677D1*
D2*
X47935Y23860D1*
D2*
X47997Y24163D1*
D2*
Y24345D1*
D2*
X47935Y24649D1*
D2*
X47814Y24831D1*
D2*
X47632Y24891D1*
D2*
X47511D1*
X47935Y24649D2*
X47206Y23860D1*
X48754Y24891D2*
X48572Y24831D1*
D2*
X48449Y24649D1*
D2*
X48389Y24345D1*
D2*
Y24163D1*
D2*
X48449Y23860D1*
D2*
X48572Y23677D1*
D2*
X48754Y23617D1*
D2*
X48875D1*
D2*
X49057Y23677D1*
D2*
X49178Y23860D1*
D2*
X49240Y24163D1*
D2*
Y24345D1*
D2*
X49178Y24649D1*
D2*
X49057Y24831D1*
D2*
X48875Y24891D1*
D2*
X48754D1*
X49178Y24649D2*
X48449Y23860D1*
X49632Y24468D2*
Y23617D1*
Y24225D2*
X49814Y24407D1*
D2*
X49937Y24468D1*
D2*
X50118D1*
D2*
X50240Y24407D1*
D2*
X50300Y24225D1*
D2*
Y23617D1*
X51483Y24893D2*
X50692D1*
D2*
Y23617D1*
Y24285D2*
X51178D1*
X53667Y17383D2*
Y18658D1*
D2*
X53059Y17809D1*
D2*
X53970D1*
X54423Y17505D2*
X54363Y17444D1*
D2*
X54423Y17383D1*
D2*
X54485Y17444D1*
D2*
X54423Y17505D1*
X55120Y17383D2*
X55728Y18658D1*
D2*
X54877D1*
X56120Y18234D2*
Y17626D1*
D2*
X56180Y17445D1*
D2*
X56302Y17383D1*
D2*
X56485D1*
D2*
X56605Y17445D1*
D2*
X56788Y17626D1*
Y18234D2*
Y17383D1*
X57970Y18659D2*
X57180D1*
D2*
Y17383D1*
Y18051D2*
X57666D1*
X46449Y16519D2*
X46571Y16581D1*
D2*
X46754Y16762D1*
D2*
Y15487D1*
X47511Y16762D2*
X47329Y16701D1*
D2*
X47206Y16519D1*
D2*
X47146Y16216D1*
D2*
Y16033D1*
D2*
X47206Y15730D1*
D2*
X47329Y15548D1*
D2*
X47511Y15487D1*
D2*
X47632D1*
D2*
X47814Y15548D1*
D2*
X47935Y15730D1*
D2*
X47997Y16033D1*
D2*
Y16216D1*
D2*
X47935Y16519D1*
D2*
X47814Y16701D1*
D2*
X47632Y16762D1*
D2*
X47511D1*
X47935Y16519D2*
X47206Y15730D1*
X48754Y16762D2*
X48572Y16701D1*
D2*
X48449Y16519D1*
D2*
X48389Y16216D1*
D2*
Y16033D1*
D2*
X48449Y15730D1*
D2*
X48572Y15548D1*
D2*
X48754Y15487D1*
D2*
X48875D1*
D2*
X49057Y15548D1*
D2*
X49178Y15730D1*
D2*
X49240Y16033D1*
D2*
Y16216D1*
D2*
X49178Y16519D1*
D2*
X49057Y16701D1*
D2*
X48875Y16762D1*
D2*
X48754D1*
X49178Y16519D2*
X48449Y15730D1*
X49632Y16338D2*
Y15487D1*
Y16095D2*
X49814Y16278D1*
D2*
X49937Y16338D1*
D2*
X50118D1*
D2*
X50240Y16278D1*
D2*
X50300Y16095D1*
D2*
Y15487D1*
X51483Y16763D2*
X50692D1*
D2*
Y15487D1*
Y16155D2*
X51178D1*
X60017Y17383D2*
Y18658D1*
D2*
X59409Y17809D1*
D2*
X60320D1*
X60773Y17505D2*
X60713Y17444D1*
D2*
X60773Y17383D1*
D2*
X60835Y17444D1*
D2*
X60773Y17505D1*
X61470Y17383D2*
X62078Y18658D1*
D2*
X61227D1*
X62470Y18234D2*
Y17626D1*
D2*
X62530Y17445D1*
D2*
X62652Y17383D1*
D2*
X62835D1*
D2*
X62955Y17445D1*
D2*
X63138Y17626D1*
Y18234D2*
Y17383D1*
X64320Y18659D2*
X63530D1*
D2*
Y17383D1*
Y18051D2*
X64016D1*
X62348Y48248D2*
Y49522D1*
D2*
X61740Y48673D1*
D2*
X62651D1*
X63104Y48370D2*
X63044Y48308D1*
D2*
X63104Y48248D1*
D2*
X63166Y48308D1*
D2*
X63104Y48370D1*
X63801Y48248D2*
X64409Y49522D1*
D2*
X63558D1*
X64801Y49098D2*
Y48491D1*
D2*
X64861Y48309D1*
D2*
X64983Y48248D1*
D2*
X65166D1*
D2*
X65286Y48309D1*
D2*
X65469Y48491D1*
Y49098D2*
Y48248D1*
X66651Y49524D2*
X65861D1*
D2*
Y48248D1*
Y48916D2*
X66347D1*
X72851Y52475D2*
X72973Y52536D1*
D2*
X73156Y52717D1*
D2*
Y51443D1*
X73913Y52717D2*
X73731Y52657D1*
D2*
X73608Y52475D1*
D2*
X73548Y52171D1*
D2*
Y51989D1*
D2*
X73608Y51686D1*
D2*
X73731Y51503D1*
D2*
X73913Y51443D1*
D2*
X74034D1*
D2*
X74216Y51503D1*
D2*
X74337Y51686D1*
D2*
X74399Y51989D1*
D2*
Y52171D1*
D2*
X74337Y52475D1*
D2*
X74216Y52657D1*
D2*
X74034Y52717D1*
D2*
X73913D1*
X74337Y52475D2*
X73608Y51686D1*
X75156Y52717D2*
X74974Y52657D1*
D2*
X74851Y52475D1*
D2*
X74791Y52171D1*
D2*
Y51989D1*
D2*
X74851Y51686D1*
D2*
X74974Y51503D1*
D2*
X75156Y51443D1*
D2*
X75277D1*
D2*
X75459Y51503D1*
D2*
X75580Y51686D1*
D2*
X75642Y51989D1*
D2*
Y52171D1*
D2*
X75580Y52475D1*
D2*
X75459Y52657D1*
D2*
X75277Y52717D1*
D2*
X75156D1*
X75580Y52475D2*
X74851Y51686D1*
X76034Y52294D2*
Y51443D1*
Y52051D2*
X76216Y52233D1*
D2*
X76339Y52294D1*
D2*
X76520D1*
D2*
X76642Y52233D1*
D2*
X76702Y52051D1*
D2*
Y51443D1*
X77885Y52719D2*
X77094D1*
D2*
Y51443D1*
Y52111D2*
X77580D1*
X16704Y12275D2*
X16643Y12397D1*
D2*
X16462Y12579D1*
D2*
X17736D1*
X16462Y13337D2*
X16522Y13154D1*
D2*
X16704Y13032D1*
D2*
X17008Y12972D1*
D2*
X17190D1*
D2*
X17493Y13032D1*
D2*
X17676Y13154D1*
D2*
X17736Y13337D1*
D2*
Y13457D1*
D2*
X17676Y13640D1*
D2*
X17493Y13761D1*
D2*
X17190Y13822D1*
D2*
X17008D1*
D2*
X16704Y13761D1*
D2*
X16522Y13640D1*
D2*
X16462Y13457D1*
D2*
Y13337D1*
X16704Y13761D2*
X17493Y13032D1*
X16886Y14214D2*
X17493D1*
D2*
X17674Y14275D1*
D2*
X17736Y14397D1*
D2*
Y14579D1*
D2*
X17674Y14700D1*
D2*
X17493Y14883D1*
X16886D2*
X17736D1*
X16460Y16065D2*
Y15275D1*
D2*
X17736D1*
X17068D2*
Y15761D1*
X16040Y21817D2*
X17316D1*
D2*
Y22365D1*
D2*
X17254Y22547D1*
D2*
X17194Y22608D1*
D2*
X17073Y22668D1*
D2*
X16891D1*
D2*
X16769Y22608D1*
D2*
X16708Y22547D1*
D2*
X16648Y22365D1*
D2*
X16586Y22547D1*
D2*
X16526Y22608D1*
D2*
X16405Y22668D1*
D2*
X16283D1*
D2*
X16162Y22608D1*
D2*
X16101Y22547D1*
D2*
X16040Y22365D1*
D2*
Y21817D1*
X16648D2*
Y22365D1*
X16040Y23060D2*
Y23911D1*
D2*
X17316Y23060D1*
D2*
Y23911D1*
X16040Y24303D2*
X17316Y25154D1*
X16040D2*
X17316Y24303D1*
X16042Y26275D2*
Y25668D1*
D2*
X16588Y25608D1*
D2*
X16527Y25668D1*
D2*
X16466Y25851D1*
D2*
Y26032D1*
D2*
X16527Y26214D1*
D2*
X16648Y26336D1*
D2*
X16830Y26397D1*
D2*
X16951D1*
D2*
X17134Y26336D1*
D2*
X17256Y26214D1*
D2*
X17316Y26032D1*
D2*
Y25851D1*
D2*
X17256Y25668D1*
D2*
X17194Y25608D1*
D2*
X17073Y25546D1*
X16042Y27518D2*
Y26911D1*
D2*
X16588Y26851D1*
D2*
X16527Y26911D1*
D2*
X16466Y27094D1*
D2*
Y27275D1*
D2*
X16527Y27457D1*
D2*
X16648Y27579D1*
D2*
X16830Y27640D1*
D2*
X16951D1*
D2*
X17134Y27579D1*
D2*
X17256Y27457D1*
D2*
X17316Y27275D1*
D2*
Y27094D1*
D2*
X17256Y26911D1*
D2*
X17194Y26851D1*
D2*
X17073Y26789D1*
X16343Y28943D2*
X16223Y28883D1*
D2*
X16101Y28760D1*
D2*
X16040Y28640D1*
D2*
Y28397D1*
D2*
X16101Y28275D1*
D2*
X16223Y28154D1*
D2*
X16343Y28092D1*
D2*
X16526Y28032D1*
D2*
X16830D1*
D2*
X17012Y28092D1*
D2*
X17134Y28154D1*
D2*
X17254Y28275D1*
D2*
X17316Y28397D1*
D2*
Y28640D1*
D2*
X17254Y28760D1*
D2*
X17134Y28883D1*
D2*
X17012Y28943D1*
X16345Y29397D2*
X16284D1*
D2*
X16162Y29457D1*
D2*
X16102Y29518D1*
D2*
X16042Y29640D1*
D2*
Y29883D1*
D2*
X16102Y30003D1*
D2*
X16162Y30064D1*
D2*
X16284Y30125D1*
D2*
X16405D1*
D2*
X16527Y30064D1*
D2*
X16708Y29943D1*
D2*
X17316Y29335D1*
D2*
Y30186D1*
X16040Y30578D2*
X17316Y31064D1*
D2*
X16040Y31549D1*
X17316Y32549D2*
X16042D1*
D2*
X16891Y31942D1*
D2*
Y32853D1*
X13057Y39572D2*
X12996Y39694D1*
D2*
X12815Y39876D1*
D2*
X14089D1*
X12813Y41119D2*
X14089D1*
D2*
X12813Y40269D1*
D2*
X14089D1*
Y42119D2*
X12815D1*
D2*
X13664Y41512D1*
D2*
Y42423D1*
X13057Y42815D2*
X12996Y42937D1*
D2*
X12815Y43119D1*
D2*
X14089D1*
Y44119D2*
X12815D1*
D2*
X13664Y43512D1*
D2*
Y44423D1*
X12815Y45118D2*
X12875Y44937D1*
D2*
X12996Y44875D1*
D2*
X13118D1*
D2*
X13239Y44937D1*
D2*
X13300Y45058D1*
D2*
X13361Y45301D1*
D2*
X13421Y45483D1*
D2*
X13543Y45604D1*
D2*
X13664Y45664D1*
D2*
X13846D1*
D2*
X13967Y45604D1*
D2*
X14029Y45543D1*
D2*
X14089Y45361D1*
D2*
Y45118D1*
D2*
X14029Y44937D1*
D2*
X13967Y44875D1*
D2*
X13846Y44815D1*
D2*
X13664D1*
D2*
X13543Y44875D1*
D2*
X13421Y44997D1*
D2*
X13361Y45178D1*
D2*
X13300Y45421D1*
D2*
X13238Y45543D1*
D2*
X13118Y45604D1*
D2*
X12996D1*
D2*
X12875Y45543D1*
D2*
X12815Y45361D1*
D2*
Y45118D1*
X79723Y3529D2*
X79601Y3408D1*
D2*
X79540Y3226D1*
D2*
Y2983D1*
D2*
X79600Y2801D1*
D2*
X79723Y2678D1*
D2*
X79843D1*
D2*
X79965Y2740D1*
D2*
X80026Y2801D1*
D2*
X80086Y2921D1*
D2*
X80208Y3286D1*
D2*
X80269Y3408D1*
D2*
X80331Y3469D1*
D2*
X80451Y3529D1*
D2*
X80634D1*
D2*
X80754Y3408D1*
D2*
X80816Y3226D1*
D2*
Y2983D1*
D2*
X80754Y2801D1*
D2*
X80634Y2678D1*
X79540Y4529D2*
X80512D1*
D2*
X80694Y4469D1*
D2*
X80754Y4407D1*
D2*
X80816Y4286D1*
D2*
Y4164D1*
D2*
X80754Y4043D1*
D2*
X80694Y3983D1*
D2*
X80512Y3921D1*
D2*
X80391D1*
X79784Y4921D2*
X79723Y5043D1*
D2*
X79542Y5226D1*
D2*
X80816D1*
X80179Y5618D2*
Y6320D1*
X79542Y6834D2*
Y7501D1*
D2*
X80027Y7138D1*
D2*
Y7320D1*
D2*
X80088Y7441D1*
D2*
X80148Y7501D1*
D2*
X80330Y7563D1*
D2*
X80451D1*
D2*
X80634Y7501D1*
D2*
X80756Y7380D1*
D2*
X80816Y7198D1*
D2*
Y7015D1*
D2*
X80756Y6834D1*
D2*
X80694Y6774D1*
D2*
X80573Y6712D1*
X79542Y8684D2*
Y8077D1*
D2*
X80088Y8017D1*
D2*
X80027Y8077D1*
D2*
X79966Y8260D1*
D2*
X79965Y8441D1*
D2*
X80027Y8623D1*
D2*
X80148Y8745D1*
D2*
X80330Y8806D1*
D2*
X80451D1*
D2*
X80634Y8745D1*
D2*
X80756Y8623D1*
D2*
X80816Y8441D1*
D2*
Y8260D1*
D2*
X80756Y8077D1*
D2*
X80694Y8017D1*
D2*
X80573Y7955D1*
X79845Y9260D2*
X79784D1*
D2*
X79662Y9320D1*
D2*
X79602Y9380D1*
D2*
X79542Y9503D1*
D2*
Y9745D1*
D2*
X79602Y9866D1*
D2*
X79662Y9927D1*
D2*
X79784Y9988D1*
D2*
X79905D1*
D2*
X80027Y9927D1*
D2*
X80208Y9806D1*
D2*
X80816Y9198D1*
D2*
Y10049D1*
X79542Y11169D2*
Y10563D1*
D2*
X80088Y10503D1*
D2*
X80027Y10563D1*
D2*
X79965Y10745D1*
D2*
Y10927D1*
D2*
X80027Y11109D1*
D2*
X80148Y11231D1*
D2*
X80330Y11292D1*
D2*
X80451D1*
D2*
X80634Y11231D1*
D2*
X80756Y11109D1*
D2*
X80816Y10927D1*
D2*
Y10745D1*
D2*
X80756Y10563D1*
D2*
X80694Y10503D1*
D2*
X80573Y10441D1*
X6155Y22352D2*
X7432D1*
D2*
Y22778D1*
D2*
X7370Y22960D1*
D2*
X7249Y23082D1*
D2*
X7127Y23143D1*
D2*
X6946Y23203D1*
D2*
X6641D1*
D2*
X6459Y23143D1*
D2*
X6338Y23082D1*
D2*
X6216Y22960D1*
D2*
X6155Y22778D1*
D2*
Y22352D1*
Y23595D2*
X7432D1*
X6155Y24838D2*
X7432D1*
D2*
X6155Y23987D1*
D2*
X7432D1*
X6794Y25230D2*
Y25932D1*
X6157Y27053D2*
Y26446D1*
D2*
X6703Y26386D1*
D2*
X6643Y26446D1*
D2*
X6581Y26629D1*
D2*
Y26810D1*
D2*
X6643Y26992D1*
D2*
X6763Y27115D1*
D2*
X6946Y27175D1*
D2*
X7067D1*
D2*
X7249Y27115D1*
D2*
X7371Y26992D1*
D2*
X7432Y26810D1*
D2*
Y26629D1*
D2*
X7371Y26446D1*
D2*
X7309Y26386D1*
D2*
X7189Y26324D1*
X6824Y27567D2*
Y28115D1*
D2*
X6763Y28296D1*
D2*
X6702Y28357D1*
D2*
X6581Y28418D1*
D2*
X6398D1*
D2*
X6278Y28357D1*
D2*
X6216Y28296D1*
D2*
X6155Y28115D1*
D2*
Y27567D1*
D2*
X7432D1*
X17746Y18885D2*
X17868Y18947D1*
D2*
X18051Y19128D1*
D2*
Y17853D1*
X18808Y19128D2*
X18625Y19068D1*
D2*
X18503Y18885D1*
D2*
X18443Y18582D1*
D2*
Y18400D1*
D2*
X18503Y18096D1*
D2*
X18625Y17914D1*
D2*
X18808Y17853D1*
D2*
X18929D1*
D2*
X19111Y17914D1*
D2*
X19232Y18096D1*
D2*
X19294Y18400D1*
D2*
Y18582D1*
D2*
X19232Y18885D1*
D2*
X19111Y19068D1*
D2*
X18929Y19128D1*
D2*
X18808D1*
X19232Y18885D2*
X18503Y18096D1*
X19686Y19130D2*
Y17853D1*
X20294Y18704D2*
X19686Y18096D1*
X19929Y18339D2*
X20354Y17853D1*
X20735Y41000D2*
X20675D1*
D2*
X20553Y41060D1*
D2*
X20492Y41120D1*
D2*
X20432Y41242D1*
D2*
Y41485D1*
D2*
X20492Y41606D1*
D2*
X20553Y41666D1*
D2*
X20675Y41728D1*
D2*
X20795D1*
D2*
X20918Y41666D1*
D2*
X21099Y41546D1*
D2*
X21707Y40938D1*
D2*
Y41788D1*
X20735Y42242D2*
X20675D1*
D2*
X20553Y42303D1*
D2*
X20492Y42363D1*
D2*
X20432Y42485D1*
D2*
Y42728D1*
D2*
X20492Y42849D1*
D2*
X20553Y42909D1*
D2*
X20675Y42971D1*
D2*
X20795D1*
D2*
X20918Y42909D1*
D2*
X21099Y42789D1*
D2*
X21707Y42181D1*
D2*
Y43031D1*
X20432Y43789D2*
X20492Y43606D1*
D2*
X20675Y43484D1*
D2*
X20978Y43424D1*
D2*
X21160D1*
D2*
X21464Y43484D1*
D2*
X21646Y43606D1*
D2*
X21707Y43789D1*
D2*
Y43909D1*
D2*
X21646Y44092D1*
D2*
X21464Y44212D1*
D2*
X21160Y44274D1*
D2*
X20978D1*
D2*
X20675Y44212D1*
D2*
X20492Y44092D1*
D2*
X20432Y43909D1*
D2*
Y43789D1*
X20675Y44212D2*
X21464Y43484D1*
X10763Y13413D2*
X10157D1*
D2*
X10097Y12867D1*
D2*
X10157Y12927D1*
D2*
X10339Y12989D1*
D2*
X10521D1*
D2*
X10703Y12927D1*
D2*
X10825Y12807D1*
D2*
X10886Y12624D1*
D2*
Y12503D1*
D2*
X10825Y12321D1*
D2*
X10703Y12199D1*
D2*
X10521Y12138D1*
D2*
X10339D1*
D2*
X10157Y12199D1*
D2*
X10097Y12261D1*
D2*
X10035Y12381D1*
X11278Y13170D2*
X11400Y13232D1*
D2*
X11582Y13413D1*
D2*
Y12138D1*
X12339Y13413D2*
X12157Y13353D1*
D2*
X12035Y13170D1*
D2*
X11974Y12867D1*
D2*
Y12685D1*
D2*
X12035Y12381D1*
D2*
X12157Y12199D1*
D2*
X12339Y12138D1*
D2*
X12460D1*
D2*
X12643Y12199D1*
D2*
X12763Y12381D1*
D2*
X12825Y12685D1*
D2*
Y12867D1*
D2*
X12763Y13170D1*
D2*
X12643Y13353D1*
D2*
X12460Y13413D1*
D2*
X12339D1*
X12763Y13170D2*
X12035Y12381D1*
X54841Y12145D2*
Y10868D1*
D2*
X55570D1*
X56934D2*
Y12145D1*
D2*
X56448Y10868D1*
D2*
X55962Y12145D1*
D2*
Y10868D1*
X57448Y12143D2*
X58115D1*
D2*
X57751Y11657D1*
D2*
X57934D1*
D2*
X58054Y11597D1*
D2*
X58115Y11537D1*
D2*
X58176Y11354D1*
D2*
Y11233D1*
D2*
X58115Y11051D1*
D2*
X57994Y10929D1*
D2*
X57811Y10868D1*
D2*
X57629D1*
D2*
X57448Y10929D1*
D2*
X57387Y10991D1*
D2*
X57326Y11111D1*
X59297Y12143D2*
X58691D1*
D2*
X58630Y11597D1*
D2*
X58691Y11657D1*
D2*
X58873Y11719D1*
D2*
X59054D1*
D2*
X59237Y11657D1*
D2*
X59359Y11537D1*
D2*
X59419Y11354D1*
D2*
Y11233D1*
D2*
X59359Y11051D1*
D2*
X59237Y10929D1*
D2*
X59054Y10868D1*
D2*
X58873D1*
D2*
X58691Y10929D1*
D2*
X58630Y10991D1*
D2*
X58569Y11111D1*
X60115Y12143D2*
X59934Y12083D1*
D2*
X59872Y11962D1*
D2*
Y11840D1*
D2*
X59934Y11719D1*
D2*
X60054Y11657D1*
D2*
X60297Y11597D1*
D2*
X60480Y11537D1*
D2*
X60600Y11415D1*
D2*
X60661Y11294D1*
D2*
Y11111D1*
D2*
X60600Y10991D1*
D2*
X60540Y10929D1*
D2*
X60358Y10868D1*
D2*
X60115D1*
D2*
X59934Y10929D1*
D2*
X59872Y10991D1*
D2*
X59811Y11111D1*
D2*
Y11294D1*
D2*
X59872Y11415D1*
D2*
X59994Y11537D1*
D2*
X60175Y11597D1*
D2*
X60418Y11657D1*
D2*
X60540Y11719D1*
D2*
X60600Y11840D1*
D2*
Y11962D1*
D2*
X60540Y12083D1*
D2*
X60358Y12143D1*
D2*
X60115D1*
X62026Y10868D2*
X61539Y12145D1*
D2*
X61053Y10868D1*
X61235Y11294D2*
X61843D1*
X63269Y12145D2*
Y10868D1*
D2*
X62418Y12145D1*
D2*
Y10868D1*
X28440Y17208D2*
Y18485D1*
D2*
X27954Y17208D1*
D2*
X27468Y18485D1*
D2*
Y17208D1*
X29743Y18181D2*
X29683Y18302D1*
D2*
X29561Y18424D1*
D2*
X29440Y18485D1*
D2*
X29197D1*
D2*
X29075Y18424D1*
D2*
X28954Y18302D1*
D2*
X28892Y18181D1*
D2*
X28832Y17999D1*
D2*
Y17694D1*
D2*
X28892Y17513D1*
D2*
X28954Y17391D1*
D2*
X29075Y17270D1*
D2*
X29197Y17208D1*
D2*
X29440D1*
D2*
X29561Y17270D1*
D2*
X29683Y17391D1*
D2*
X29743Y17513D1*
X30378Y17208D2*
X30986Y18483D1*
D2*
X30135D1*
X31986Y17208D2*
Y18483D1*
D2*
X31378Y17634D1*
D2*
X32289D1*
X32681Y18485D2*
Y17208D1*
X33532Y18485D2*
Y17208D1*
X32681Y17877D2*
X33532D1*
X34835Y18181D2*
X34775Y18302D1*
D2*
X34653Y18424D1*
D2*
X34532Y18485D1*
D2*
X34289D1*
D2*
X34167Y18424D1*
D2*
X34046Y18302D1*
D2*
X33985Y18181D1*
D2*
X33924Y17999D1*
D2*
Y17694D1*
D2*
X33985Y17513D1*
D2*
X34046Y17391D1*
D2*
X34167Y17270D1*
D2*
X34289Y17208D1*
D2*
X34532D1*
D2*
X34653Y17270D1*
D2*
X34775Y17391D1*
D2*
X34835Y17513D1*
X35956Y18483D2*
X35350D1*
D2*
X35289Y17937D1*
D2*
X35350Y17997D1*
D2*
X35532Y18059D1*
D2*
X35713D1*
D2*
X35896Y17997D1*
D2*
X36018Y17877D1*
D2*
X36078Y17694D1*
D2*
Y17573D1*
D2*
X36018Y17391D1*
D2*
X35896Y17269D1*
D2*
X35713Y17208D1*
D2*
X35532D1*
D2*
X35350Y17269D1*
D2*
X35289Y17331D1*
D2*
X35228Y17451D1*
X37261Y18059D2*
X37199Y17877D1*
D2*
X37078Y17755D1*
D2*
X36896Y17694D1*
D2*
X36835D1*
D2*
X36653Y17755D1*
D2*
X36532Y17877D1*
D2*
X36470Y18059D1*
D2*
Y18120D1*
D2*
X36532Y18302D1*
D2*
X36653Y18423D1*
D2*
X36835Y18483D1*
D2*
X36896D1*
D2*
X37078Y18423D1*
D2*
X37199Y18302D1*
D2*
X37261Y18059D1*
D2*
Y17755D1*
D2*
X37199Y17451D1*
D2*
X37078Y17269D1*
D2*
X36896Y17208D1*
D2*
X36775D1*
D2*
X36593Y17269D1*
D2*
X36532Y17391D1*
X38382Y18483D2*
X37775D1*
D2*
X37715Y17937D1*
D2*
X37775Y17997D1*
D2*
X37958Y18059D1*
D2*
X38139D1*
D2*
X38321Y17997D1*
D2*
X38443Y17877D1*
D2*
X38504Y17694D1*
D2*
Y17573D1*
D2*
X38443Y17391D1*
D2*
X38321Y17269D1*
D2*
X38139Y17208D1*
D2*
X37958D1*
D2*
X37775Y17269D1*
D2*
X37715Y17331D1*
D2*
X37653Y17451D1*
X39869Y17208D2*
X39382Y18485D1*
D2*
X38896Y17208D1*
X39078Y17634D2*
X39686D1*
X41112Y18485D2*
Y17208D1*
D2*
X40261Y18485D1*
D2*
Y17208D1*
X56609Y42618D2*
Y43895D1*
D2*
X56123Y42618D1*
D2*
X55638Y43895D1*
D2*
Y42618D1*
X57974D2*
X57487Y43895D1*
D2*
X57001Y42618D1*
X57184Y43044D2*
X57792D1*
X58366Y43895D2*
X59217Y42618D1*
Y43895D2*
X58366Y42618D1*
X59671Y43590D2*
Y43650D1*
D2*
X59731Y43772D1*
D2*
X59792Y43833D1*
D2*
X59914Y43893D1*
D2*
X60157D1*
D2*
X60277Y43833D1*
D2*
X60338Y43772D1*
D2*
X60400Y43650D1*
D2*
Y43530D1*
D2*
X60338Y43407D1*
D2*
X60217Y43226D1*
D2*
X59609Y42618D1*
D2*
X60460D1*
X61581Y43712D2*
X61520Y43833D1*
D2*
X61338Y43893D1*
D2*
X61217D1*
D2*
X61035Y43833D1*
D2*
X60912Y43650D1*
D2*
X60852Y43347D1*
D2*
Y43044D1*
D2*
X60912Y42801D1*
D2*
X61035Y42679D1*
D2*
X61217Y42618D1*
D2*
X61277D1*
D2*
X61459Y42679D1*
D2*
X61581Y42801D1*
D2*
X61641Y42983D1*
D2*
Y43044D1*
D2*
X61581Y43226D1*
D2*
X61459Y43347D1*
D2*
X61277Y43407D1*
D2*
X61217D1*
D2*
X61035Y43347D1*
D2*
X60912Y43226D1*
D2*
X60852Y43044D1*
X62033Y43650D2*
X62155Y43712D1*
D2*
X62338Y43893D1*
D2*
Y42618D1*
X63703D2*
X63216Y43895D1*
D2*
X62730Y42618D1*
X62913Y43044D2*
X63520D1*
X65006Y43591D2*
X64946Y43712D1*
D2*
X64824Y43834D1*
D2*
X64703Y43895D1*
D2*
X64460D1*
D2*
X64338Y43834D1*
D2*
X64217Y43712D1*
D2*
X64155Y43591D1*
D2*
X64095Y43409D1*
D2*
Y43104D1*
D2*
X64155Y42923D1*
D2*
X64217Y42801D1*
D2*
X64338Y42680D1*
D2*
X64460Y42618D1*
D2*
X64703D1*
D2*
X64824Y42680D1*
D2*
X64946Y42801D1*
D2*
X65006Y42923D1*
X66249Y43895D2*
Y42618D1*
D2*
X65398Y43895D1*
D2*
Y42618D1*
X67552Y43591D2*
X67492Y43712D1*
D2*
X67370Y43834D1*
D2*
X67249Y43895D1*
D2*
X67006D1*
D2*
X66884Y43834D1*
D2*
X66763Y43712D1*
D2*
X66702Y43591D1*
D2*
X66641Y43409D1*
D2*
Y43104D1*
D2*
X66702Y42923D1*
D2*
X66763Y42801D1*
D2*
X66884Y42680D1*
D2*
X67006Y42618D1*
D2*
X67249D1*
D2*
X67370Y42680D1*
D2*
X67492Y42801D1*
D2*
X67552Y42923D1*
D2*
Y43104D1*
D2*
X67249D1*
X29714Y43601D2*
X29653Y43722D1*
D2*
X29531Y43844D1*
D2*
X29410Y43905D1*
D2*
X29168D1*
D2*
X29045Y43844D1*
D2*
X28925Y43722D1*
D2*
X28863Y43601D1*
D2*
X28803Y43419D1*
D2*
Y43114D1*
D2*
X28863Y42933D1*
D2*
X28925Y42811D1*
D2*
X29045Y42690D1*
D2*
X29168Y42628D1*
D2*
X29410D1*
D2*
X29531Y42690D1*
D2*
X29653Y42811D1*
D2*
X29714Y42933D1*
X30106Y43905D2*
Y42628D1*
D2*
X30531D1*
D2*
X30714Y42690D1*
D2*
X30836Y42811D1*
D2*
X30896Y42933D1*
D2*
X30957Y43114D1*
D2*
Y43419D1*
D2*
X30896Y43601D1*
D2*
X30836Y43722D1*
D2*
X30714Y43844D1*
D2*
X30531Y43905D1*
D2*
X30106D1*
X31957Y42628D2*
Y43903D1*
D2*
X31349Y43054D1*
D2*
X32260D1*
X33017Y43903D2*
X32834Y43843D1*
D2*
X32712Y43660D1*
D2*
X32652Y43357D1*
D2*
Y43175D1*
D2*
X32712Y42871D1*
D2*
X32834Y42689D1*
D2*
X33017Y42628D1*
D2*
X33138D1*
D2*
X33320Y42689D1*
D2*
X33441Y42871D1*
D2*
X33503Y43175D1*
D2*
Y43357D1*
D2*
X33441Y43660D1*
D2*
X33320Y43843D1*
D2*
X33138Y43903D1*
D2*
X33017D1*
X33441Y43660D2*
X32712Y42871D1*
X34623Y43903D2*
X34017D1*
D2*
X33957Y43357D1*
D2*
X34017Y43417D1*
D2*
X34199Y43479D1*
D2*
X34381D1*
D2*
X34563Y43417D1*
D2*
X34685Y43297D1*
D2*
X34746Y43114D1*
D2*
Y42993D1*
D2*
X34685Y42811D1*
D2*
X34563Y42689D1*
D2*
X34381Y42628D1*
D2*
X34199D1*
D2*
X34017Y42689D1*
D2*
X33957Y42751D1*
D2*
X33895Y42871D1*
X35260Y43903D2*
X35927D1*
D2*
X35563Y43417D1*
D2*
X35746D1*
D2*
X35866Y43357D1*
D2*
X35927Y43297D1*
D2*
X35988Y43114D1*
D2*
Y42993D1*
D2*
X35927Y42811D1*
D2*
X35806Y42689D1*
D2*
X35623Y42628D1*
D2*
X35441D1*
D2*
X35260Y42689D1*
D2*
X35199Y42751D1*
D2*
X35138Y42871D1*
X36381Y43905D2*
Y42628D1*
D2*
X36928D1*
D2*
X37111Y42690D1*
D2*
X37171Y42751D1*
D2*
X37231Y42871D1*
D2*
Y43054D1*
D2*
X37171Y43176D1*
D2*
X37111Y43236D1*
D2*
X36928Y43297D1*
D2*
X37111Y43358D1*
D2*
X37171Y43419D1*
D2*
X37231Y43540D1*
D2*
Y43662D1*
D2*
X37171Y43782D1*
D2*
X37111Y43844D1*
D2*
X36928Y43905D1*
D2*
X36381D1*
Y43297D2*
X36928D1*
X38535Y43601D2*
X38474Y43722D1*
D2*
X38352Y43844D1*
D2*
X38231Y43905D1*
D2*
X37988D1*
D2*
X37866Y43844D1*
D2*
X37746Y43722D1*
D2*
X37684Y43601D1*
D2*
X37623Y43419D1*
D2*
Y43114D1*
D2*
X37684Y42933D1*
D2*
X37746Y42811D1*
D2*
X37866Y42690D1*
D2*
X37988Y42628D1*
D2*
X38231D1*
D2*
X38352Y42690D1*
D2*
X38474Y42811D1*
D2*
X38535Y42933D1*
X39777Y43905D2*
Y42628D1*
D2*
X38927Y43905D1*
D2*
Y42628D1*
X28440Y29928D2*
Y31205D1*
D2*
X27954Y29928D1*
D2*
X27468Y31205D1*
D2*
Y29928D1*
X29743Y30901D2*
X29683Y31022D1*
D2*
X29561Y31144D1*
D2*
X29440Y31205D1*
D2*
X29197D1*
D2*
X29075Y31144D1*
D2*
X28954Y31022D1*
D2*
X28892Y30901D1*
D2*
X28832Y30719D1*
D2*
Y30414D1*
D2*
X28892Y30233D1*
D2*
X28954Y30111D1*
D2*
X29075Y29990D1*
D2*
X29197Y29928D1*
D2*
X29440D1*
D2*
X29561Y29990D1*
D2*
X29683Y30111D1*
D2*
X29743Y30233D1*
X30378Y29928D2*
X30986Y31203D1*
D2*
X30135D1*
X31986Y29928D2*
Y31203D1*
D2*
X31378Y30354D1*
D2*
X32289D1*
X32681Y31205D2*
Y29928D1*
X33532Y31205D2*
Y29928D1*
X32681Y30597D2*
X33532D1*
X34835Y30901D2*
X34775Y31022D1*
D2*
X34653Y31144D1*
D2*
X34532Y31205D1*
D2*
X34289D1*
D2*
X34167Y31144D1*
D2*
X34046Y31022D1*
D2*
X33985Y30901D1*
D2*
X33924Y30719D1*
D2*
Y30414D1*
D2*
X33985Y30233D1*
D2*
X34046Y30111D1*
D2*
X34167Y29990D1*
D2*
X34289Y29928D1*
D2*
X34532D1*
D2*
X34653Y29990D1*
D2*
X34775Y30111D1*
D2*
X34835Y30233D1*
X35956Y31203D2*
X35350D1*
D2*
X35289Y30657D1*
D2*
X35350Y30717D1*
D2*
X35532Y30779D1*
D2*
X35713D1*
D2*
X35896Y30717D1*
D2*
X36018Y30597D1*
D2*
X36078Y30414D1*
D2*
Y30293D1*
D2*
X36018Y30111D1*
D2*
X35896Y29989D1*
D2*
X35713Y29928D1*
D2*
X35532D1*
D2*
X35350Y29989D1*
D2*
X35289Y30051D1*
D2*
X35228Y30171D1*
X37261Y30779D2*
X37199Y30597D1*
D2*
X37078Y30475D1*
D2*
X36896Y30414D1*
D2*
X36835D1*
D2*
X36653Y30475D1*
D2*
X36532Y30597D1*
D2*
X36470Y30779D1*
D2*
Y30840D1*
D2*
X36532Y31022D1*
D2*
X36653Y31143D1*
D2*
X36835Y31203D1*
D2*
X36896D1*
D2*
X37078Y31143D1*
D2*
X37199Y31022D1*
D2*
X37261Y30779D1*
D2*
Y30475D1*
D2*
X37199Y30171D1*
D2*
X37078Y29989D1*
D2*
X36896Y29928D1*
D2*
X36775D1*
D2*
X36593Y29989D1*
D2*
X36532Y30111D1*
X38382Y31203D2*
X37775D1*
D2*
X37715Y30657D1*
D2*
X37775Y30717D1*
D2*
X37958Y30779D1*
D2*
X38139D1*
D2*
X38321Y30717D1*
D2*
X38443Y30597D1*
D2*
X38504Y30414D1*
D2*
Y30293D1*
D2*
X38443Y30111D1*
D2*
X38321Y29989D1*
D2*
X38139Y29928D1*
D2*
X37958D1*
D2*
X37775Y29989D1*
D2*
X37715Y30051D1*
D2*
X37653Y30171D1*
X39869Y29928D2*
X39382Y31205D1*
D2*
X38896Y29928D1*
X39078Y30354D2*
X39686D1*
X41112Y31205D2*
Y29928D1*
D2*
X40261Y31205D1*
D2*
Y29928D1*
X51304Y30881D2*
X51243Y31002D1*
D2*
X51121Y31124D1*
D2*
X51000Y31185D1*
D2*
X50758D1*
D2*
X50635Y31124D1*
D2*
X50515Y31002D1*
D2*
X50453Y30881D1*
D2*
X50393Y30699D1*
D2*
Y30394D1*
D2*
X50453Y30213D1*
D2*
X50515Y30091D1*
D2*
X50635Y29970D1*
D2*
X50758Y29908D1*
D2*
X51000D1*
D2*
X51121Y29970D1*
D2*
X51243Y30091D1*
D2*
X51304Y30213D1*
X51696Y31185D2*
Y29908D1*
D2*
X52121D1*
D2*
X52304Y29970D1*
D2*
X52426Y30091D1*
D2*
X52486Y30213D1*
D2*
X52547Y30394D1*
D2*
Y30699D1*
D2*
X52486Y30881D1*
D2*
X52426Y31002D1*
D2*
X52304Y31124D1*
D2*
X52121Y31185D1*
D2*
X51696D1*
X53547Y29908D2*
Y31183D1*
D2*
X52939Y30334D1*
D2*
X53850D1*
X54607Y31183D2*
X54424Y31123D1*
D2*
X54302Y30940D1*
D2*
X54242Y30637D1*
D2*
Y30455D1*
D2*
X54302Y30151D1*
D2*
X54424Y29969D1*
D2*
X54607Y29908D1*
D2*
X54728D1*
D2*
X54910Y29969D1*
D2*
X55031Y30151D1*
D2*
X55093Y30455D1*
D2*
Y30637D1*
D2*
X55031Y30940D1*
D2*
X54910Y31123D1*
D2*
X54728Y31183D1*
D2*
X54607D1*
X55031Y30940D2*
X54302Y30151D1*
X56213Y31183D2*
X55607D1*
D2*
X55547Y30637D1*
D2*
X55607Y30697D1*
D2*
X55789Y30759D1*
D2*
X55971D1*
D2*
X56153Y30697D1*
D2*
X56275Y30577D1*
D2*
X56336Y30394D1*
D2*
Y30273D1*
D2*
X56275Y30091D1*
D2*
X56153Y29969D1*
D2*
X55971Y29908D1*
D2*
X55789D1*
D2*
X55607Y29969D1*
D2*
X55547Y30031D1*
D2*
X55485Y30151D1*
X56850Y31183D2*
X57517D1*
D2*
X57153Y30697D1*
D2*
X57336D1*
D2*
X57456Y30637D1*
D2*
X57517Y30577D1*
D2*
X57578Y30394D1*
D2*
Y30273D1*
D2*
X57517Y30091D1*
D2*
X57396Y29969D1*
D2*
X57213Y29908D1*
D2*
X57031D1*
D2*
X56850Y29969D1*
D2*
X56789Y30031D1*
D2*
X56728Y30151D1*
X57971Y31185D2*
Y29908D1*
D2*
X58518D1*
D2*
X58701Y29970D1*
D2*
X58761Y30031D1*
D2*
X58821Y30151D1*
D2*
Y30334D1*
D2*
X58761Y30456D1*
D2*
X58701Y30516D1*
D2*
X58518Y30577D1*
D2*
X58701Y30638D1*
D2*
X58761Y30699D1*
D2*
X58821Y30820D1*
D2*
Y30942D1*
D2*
X58761Y31062D1*
D2*
X58701Y31124D1*
D2*
X58518Y31185D1*
D2*
X57971D1*
Y30577D2*
X58518D1*
X60125Y30881D2*
X60064Y31002D1*
D2*
X59942Y31124D1*
D2*
X59821Y31185D1*
D2*
X59578D1*
D2*
X59456Y31124D1*
D2*
X59336Y31002D1*
D2*
X59274Y30881D1*
D2*
X59213Y30699D1*
D2*
Y30394D1*
D2*
X59274Y30213D1*
D2*
X59336Y30091D1*
D2*
X59456Y29970D1*
D2*
X59578Y29908D1*
D2*
X59821D1*
D2*
X59942Y29970D1*
D2*
X60064Y30091D1*
D2*
X60125Y30213D1*
X61367Y31185D2*
Y29908D1*
D2*
X60517Y31185D1*
D2*
Y29908D1*
X6453Y3851D2*
X6332Y3790D1*
D2*
X6272Y3608D1*
D2*
Y3487D1*
D2*
X6332Y3305D1*
D2*
X6515Y3182D1*
D2*
X6818Y3122D1*
D2*
X7121D1*
D2*
X7364Y3182D1*
D2*
X7486Y3305D1*
D2*
X7547Y3487D1*
D2*
Y3547D1*
D2*
X7486Y3729D1*
D2*
X7364Y3851D1*
D2*
X7182Y3911D1*
D2*
X7121D1*
D2*
X6939Y3851D1*
D2*
X6818Y3729D1*
D2*
X6758Y3547D1*
D2*
Y3487D1*
D2*
X6818Y3305D1*
D2*
X6939Y3182D1*
D2*
X7121Y3122D1*
X6270Y5154D2*
X7547D1*
D2*
X6270Y4303D1*
D2*
X7547D1*
X6515Y5546D2*
X6453Y5668D1*
D2*
X6272Y5851D1*
D2*
X7547D1*
X6272Y6365D2*
Y7032D1*
D2*
X6758Y6668D1*
D2*
Y6851D1*
D2*
X6818Y6971D1*
D2*
X6878Y7032D1*
D2*
X7061Y7094D1*
D2*
X7182D1*
D2*
X7364Y7032D1*
D2*
X7486Y6911D1*
D2*
X7547Y6729D1*
D2*
Y6546D1*
D2*
X7486Y6365D1*
D2*
X7424Y6305D1*
D2*
X7304Y6243D1*
X6272Y7789D2*
X6332Y7608D1*
D2*
X6453Y7546D1*
D2*
X6575D1*
D2*
X6696Y7608D1*
D2*
X6758Y7729D1*
D2*
X6818Y7971D1*
D2*
X6878Y8154D1*
D2*
X7000Y8275D1*
D2*
X7121Y8335D1*
D2*
X7304D1*
D2*
X7424Y8275D1*
D2*
X7486Y8214D1*
D2*
X7547Y8032D1*
D2*
Y7789D1*
D2*
X7486Y7608D1*
D2*
X7424Y7546D1*
D2*
X7304Y7486D1*
D2*
X7121D1*
D2*
X7000Y7546D1*
D2*
X6878Y7668D1*
D2*
X6818Y7849D1*
D2*
X6758Y8092D1*
D2*
X6696Y8214D1*
D2*
X6575Y8275D1*
D2*
X6453D1*
D2*
X6332Y8214D1*
D2*
X6272Y8032D1*
D2*
Y7789D1*
X6270Y9578D2*
X7547D1*
D2*
X6270Y8727D1*
D2*
X7547D1*
X9307Y41243D2*
X9245Y41365D1*
D2*
X9064Y41548D1*
D2*
X10339D1*
X9064Y42305D2*
X9125Y42122D1*
D2*
X9307Y42000D1*
D2*
X9610Y41940D1*
D2*
X9793D1*
D2*
X10096Y42000D1*
D2*
X10278Y42122D1*
D2*
X10339Y42305D1*
D2*
Y42426D1*
D2*
X10278Y42608D1*
D2*
X10096Y42729D1*
D2*
X9793Y42791D1*
D2*
X9610D1*
D2*
X9307Y42729D1*
D2*
X9125Y42608D1*
D2*
X9064Y42426D1*
D2*
Y42305D1*
X9307Y42729D2*
X10096Y42000D1*
X9063Y43183D2*
X10339D1*
X9488Y43791D2*
X10096Y43183D1*
X9853Y43426D2*
X10339Y43851D1*
X9063Y45478D2*
X10339D1*
X9488Y46173D2*
X9548Y46052D1*
D2*
X9671Y45930D1*
D2*
X9853Y45870D1*
D2*
X9974D1*
D2*
X10156Y45930D1*
D2*
X10277Y46052D1*
D2*
X10339Y46173D1*
D2*
Y46356D1*
D2*
X10277Y46478D1*
D2*
X10156Y46598D1*
D2*
X9974Y46660D1*
D2*
X9853D1*
D2*
X9671Y46598D1*
D2*
X9548Y46478D1*
D2*
X9488Y46356D1*
D2*
Y46173D1*
X9548Y47781D2*
X10521D1*
D2*
X10702Y47721D1*
D2*
X10764Y47660D1*
D2*
X10825Y47538D1*
D2*
Y47356D1*
D2*
X10764Y47235D1*
X9731Y47781D2*
X9610Y47660D1*
D2*
X9548Y47538D1*
D2*
Y47356D1*
D2*
X9610Y47235D1*
D2*
X9731Y47113D1*
D2*
X9913Y47052D1*
D2*
X10036D1*
D2*
X10217Y47113D1*
D2*
X10339Y47235D1*
D2*
X10399Y47356D1*
D2*
Y47538D1*
D2*
X10339Y47660D1*
D2*
X10217Y47781D1*
X44156Y37701D2*
D70*
Y36169D1*
D2*
X44666D1*
D2*
X44885Y36244D1*
D2*
X45032Y36388D1*
D2*
X45104Y36535D1*
D2*
X45177Y36752D1*
D2*
Y37118D1*
D2*
X45104Y37337D1*
D2*
X45032Y37482D1*
D2*
X44885Y37628D1*
D2*
X44666Y37701D1*
D2*
X44156D1*
X46522Y37190D2*
Y36169D1*
Y36971D2*
X46377Y37118D1*
D2*
X46230Y37190D1*
D2*
X46013D1*
D2*
X45866Y37118D1*
D2*
X45722Y36971D1*
D2*
X45647Y36752D1*
D2*
Y36607D1*
D2*
X45722Y36388D1*
D2*
X45866Y36244D1*
D2*
X46013Y36169D1*
D2*
X46230D1*
D2*
X46377Y36244D1*
D2*
X46522Y36388D1*
X46992Y37190D2*
X47430Y36169D1*
D2*
X47867Y37190D1*
X48337Y36752D2*
X49212D1*
D2*
Y36899D1*
D2*
X49139Y37045D1*
D2*
X49067Y37118D1*
D2*
X48920Y37190D1*
D2*
X48701D1*
D2*
X48556Y37118D1*
D2*
X48410Y36971D1*
D2*
X48337Y36752D1*
D2*
Y36607D1*
D2*
X48410Y36388D1*
D2*
X48556Y36244D1*
D2*
X48701Y36169D1*
D2*
X48920D1*
D2*
X49067Y36244D1*
D2*
X49212Y36388D1*
X49756Y37190D2*
X50193Y36169D1*
D2*
X50048Y35878D1*
D2*
X49901Y35731D1*
D2*
X49756Y35659D1*
D2*
X49682D1*
X50631Y37190D2*
X50193Y36169D1*
X53093Y37701D2*
Y36169D1*
X52583Y37701D2*
X53603D1*
X54948Y37190D2*
Y36169D1*
Y36971D2*
X54803Y37118D1*
D2*
X54657Y37190D1*
D2*
X54440D1*
D2*
X54293Y37118D1*
D2*
X54148Y36971D1*
D2*
X54074Y36752D1*
D2*
Y36607D1*
D2*
X54148Y36388D1*
D2*
X54293Y36244D1*
D2*
X54440Y36169D1*
D2*
X54657D1*
D2*
X54803Y36244D1*
D2*
X54948Y36388D1*
X55493Y37190D2*
X55929Y36169D1*
D2*
X55785Y35878D1*
D2*
X55638Y35731D1*
D2*
X55493Y35659D1*
D2*
X55419D1*
X56367Y37190D2*
X55929Y36169D1*
X56838Y37701D2*
Y36169D1*
X57672Y37190D2*
X57528Y37118D1*
D2*
X57381Y36971D1*
D2*
X57309Y36752D1*
D2*
Y36607D1*
D2*
X57381Y36388D1*
D2*
X57528Y36244D1*
D2*
X57672Y36169D1*
D2*
X57891D1*
D2*
X58038Y36244D1*
D2*
X58183Y36388D1*
D2*
X58257Y36607D1*
D2*
Y36752D1*
D2*
X58183Y36971D1*
D2*
X58038Y37118D1*
D2*
X57891Y37190D1*
D2*
X57672D1*
X58728D2*
Y36169D1*
Y36752D2*
X58802Y36971D1*
D2*
X58947Y37118D1*
D2*
X59093Y37190D1*
D2*
X59312D1*
X24890Y24470D2*
X25181Y23449D1*
D2*
X25473Y24470D1*
D2*
X25764Y23449D1*
D2*
X26056Y24470D1*
X26526D2*
X26818Y23449D1*
D2*
X27109Y24470D1*
D2*
X27401Y23449D1*
D2*
X27692Y24470D1*
X28163D2*
X28454Y23449D1*
D2*
X28746Y24470D1*
D2*
X29037Y23449D1*
D2*
X29328Y24470D1*
X29871Y23596D2*
X29799Y23522D1*
D2*
X29871Y23449D1*
D2*
X29946Y23522D1*
D2*
X29871Y23596D1*
X31291Y24981D2*
Y23449D1*
Y24251D2*
X31146Y24398D1*
D2*
X30999Y24470D1*
D2*
X30780D1*
D2*
X30635Y24398D1*
D2*
X30489Y24251D1*
D2*
X30416Y24032D1*
D2*
Y23887D1*
D2*
X30489Y23668D1*
D2*
X30635Y23524D1*
D2*
X30780Y23449D1*
D2*
X30999D1*
D2*
X31146Y23524D1*
D2*
X31291Y23668D1*
X31761Y24032D2*
X32635D1*
D2*
Y24179D1*
D2*
X32563Y24325D1*
D2*
X32491Y24398D1*
D2*
X32344Y24470D1*
D2*
X32125D1*
D2*
X31980Y24398D1*
D2*
X31834Y24251D1*
D2*
X31761Y24032D1*
D2*
Y23887D1*
D2*
X31834Y23668D1*
D2*
X31980Y23524D1*
D2*
X32125Y23449D1*
D2*
X32344D1*
D2*
X32491Y23524D1*
D2*
X32635Y23668D1*
X33106Y24470D2*
X33544Y23449D1*
D2*
X33980Y24470D1*
X35253Y24251D2*
X35180Y24398D1*
D2*
X34961Y24470D1*
D2*
X34742D1*
D2*
X34523Y24398D1*
D2*
X34451Y24251D1*
D2*
X34523Y24106D1*
D2*
X34670Y24032D1*
D2*
X35034Y23960D1*
D2*
X35180Y23887D1*
D2*
X35253Y23741D1*
D2*
Y23668D1*
D2*
X35180Y23524D1*
D2*
X34961Y23449D1*
D2*
X34742D1*
D2*
X34523Y23524D1*
D2*
X34451Y23668D1*
X36087Y24470D2*
X35942Y24398D1*
D2*
X35796Y24251D1*
D2*
X35723Y24032D1*
D2*
Y23887D1*
D2*
X35796Y23668D1*
D2*
X35942Y23524D1*
D2*
X36087Y23449D1*
D2*
X36306D1*
D2*
X36453Y23524D1*
D2*
X36598Y23668D1*
D2*
X36672Y23887D1*
D2*
Y24032D1*
D2*
X36598Y24251D1*
D2*
X36453Y24398D1*
D2*
X36306Y24470D1*
D2*
X36087D1*
X37142D2*
Y23741D1*
D2*
X37215Y23524D1*
D2*
X37361Y23449D1*
D2*
X37580D1*
D2*
X37725Y23524D1*
D2*
X37944Y23741D1*
Y24470D2*
Y23449D1*
X38415Y24470D2*
Y23449D1*
Y24179D2*
X38634Y24398D1*
D2*
X38780Y24470D1*
D2*
X38998D1*
D2*
X39144Y24398D1*
D2*
X39217Y24179D1*
D2*
Y23449D1*
X40562Y24981D2*
Y23449D1*
Y24251D2*
X40417Y24398D1*
D2*
X40270Y24470D1*
D2*
X40051D1*
D2*
X39906Y24398D1*
D2*
X39760Y24251D1*
D2*
X39687Y24032D1*
D2*
Y23887D1*
D2*
X39760Y23668D1*
D2*
X39906Y23524D1*
D2*
X40051Y23449D1*
D2*
X40270D1*
D2*
X40417Y23524D1*
D2*
X40562Y23668D1*
X41105Y23596D2*
X41032Y23522D1*
D2*
X41105Y23449D1*
D2*
X41179Y23522D1*
D2*
X41105Y23596D1*
X42451Y24251D2*
X42379Y24398D1*
D2*
X42160Y24470D1*
D2*
X41941D1*
D2*
X41722Y24398D1*
D2*
X41649Y24251D1*
D2*
X41722Y24106D1*
D2*
X41868Y24032D1*
D2*
X42232Y23960D1*
D2*
X42379Y23887D1*
D2*
X42451Y23741D1*
D2*
Y23668D1*
D2*
X42379Y23524D1*
D2*
X42160Y23449D1*
D2*
X41941D1*
D2*
X41722Y23524D1*
D2*
X41649Y23668D1*
X42922Y24032D2*
X43796D1*
D2*
Y24179D1*
D2*
X43724Y24325D1*
D2*
X43651Y24398D1*
D2*
X43505Y24470D1*
D2*
X43286D1*
D2*
X43141Y24398D1*
D2*
X42994Y24251D1*
D2*
X42922Y24032D1*
D2*
Y23887D1*
D2*
X42994Y23668D1*
D2*
X43141Y23524D1*
D2*
X43286Y23449D1*
D2*
X43505D1*
D2*
X43651Y23524D1*
D2*
X43796Y23668D1*
X75840Y6053D2*
X75695Y5981D1*
D2*
X75548Y5834D1*
D2*
X75476Y5690D1*
D2*
Y5398D1*
D2*
X75548Y5252D1*
D2*
X75695Y5107D1*
D2*
X75840Y5033D1*
D2*
X76059Y4960D1*
D2*
X76424D1*
D2*
X76641Y5033D1*
D2*
X76788Y5107D1*
D2*
X76933Y5252D1*
D2*
X77007Y5398D1*
D2*
Y5690D1*
D2*
X76933Y5834D1*
D2*
X76788Y5981D1*
D2*
X76641Y6053D1*
D2*
X76424D1*
D2*
Y5690D1*
X75476Y7545D2*
X77007D1*
D2*
X75476Y6524D1*
D2*
X77007D1*
X75476Y8016D2*
X77007D1*
D2*
Y8526D1*
D2*
X76933Y8745D1*
D2*
X76788Y8892D1*
D2*
X76641Y8964D1*
D2*
X76424Y9036D1*
D2*
X76059D1*
D2*
X75840Y8964D1*
D2*
X75695Y8892D1*
D2*
X75548Y8745D1*
D2*
X75476Y8526D1*
D2*
Y8016D1*
X3539Y47752D2*
D71*
X3490Y47849D1*
D2*
X3393Y47947D1*
D2*
X3296Y47995D1*
D2*
X3102D1*
D2*
X3004Y47947D1*
D2*
X2908Y47849D1*
D2*
X2858Y47752D1*
D2*
X2810Y47606D1*
D2*
Y47363D1*
D2*
X2858Y47218D1*
D2*
X2908Y47120D1*
D2*
X3004Y47024D1*
D2*
X3102Y46974D1*
D2*
X3296D1*
D2*
X3393Y47024D1*
D2*
X3490Y47120D1*
D2*
X3539Y47218D1*
X4581Y47752D2*
X4533Y47849D1*
D2*
X4435Y47947D1*
D2*
X4339Y47995D1*
D2*
X4144D1*
D2*
X4047Y47947D1*
D2*
X3950Y47849D1*
D2*
X3901Y47752D1*
D2*
X3852Y47606D1*
D2*
Y47363D1*
D2*
X3901Y47218D1*
D2*
X3950Y47120D1*
D2*
X4047Y47024D1*
D2*
X4144Y46974D1*
D2*
X4339D1*
D2*
X4435Y47024D1*
D2*
X4533Y47120D1*
D2*
X4581Y47218D1*
X4895Y47995D2*
X5139Y46974D1*
D2*
X5381Y47995D1*
D2*
X5624Y46974D1*
D2*
X5868Y47995D1*
X3855Y37746D2*
X3806Y37843D1*
D2*
X3709Y37941D1*
D2*
X3612Y37989D1*
D2*
X3418D1*
D2*
X3320Y37941D1*
D2*
X3224Y37843D1*
D2*
X3174Y37746D1*
D2*
X3126Y37600D1*
D2*
Y37357D1*
D2*
X3174Y37212D1*
D2*
X3224Y37114D1*
D2*
X3320Y37018D1*
D2*
X3418Y36968D1*
D2*
X3612D1*
D2*
X3709Y37018D1*
D2*
X3806Y37114D1*
D2*
X3855Y37212D1*
X4168Y37989D2*
X4412Y36968D1*
D2*
X4655Y37989D1*
D2*
X4897Y36968D1*
D2*
X5141Y37989D1*
X1545Y24468D2*
D70*
X1400Y24396D1*
D2*
X1253Y24249D1*
D2*
X1181Y24105D1*
D2*
Y23813D1*
D2*
X1253Y23667D1*
D2*
X1400Y23522D1*
D2*
X1545Y23448D1*
D2*
X1764Y23375D1*
D2*
X2129D1*
D2*
X2346Y23448D1*
D2*
X2493Y23522D1*
D2*
X2638Y23667D1*
D2*
X2712Y23813D1*
D2*
Y24105D1*
D2*
X2638Y24249D1*
D2*
X2493Y24396D1*
D2*
X2346Y24468D1*
D2*
X2129D1*
D2*
Y24105D1*
X1181Y25960D2*
X2712D1*
D2*
X1181Y24939D1*
D2*
X2712D1*
X1181Y26431D2*
X2712D1*
D2*
Y26941D1*
D2*
X2638Y27160D1*
D2*
X2493Y27307D1*
D2*
X2346Y27379D1*
D2*
X2129Y27451D1*
D2*
X1764D1*
D2*
X1545Y27379D1*
D2*
X1400Y27307D1*
D2*
X1253Y27160D1*
D2*
X1181Y26941D1*
D2*
Y26431D1*
X13574Y23729D2*
X12847D1*
D2*
X12774Y23074D1*
D2*
X12847Y23146D1*
D2*
X13066Y23220D1*
D2*
X13283D1*
D2*
X13502Y23146D1*
D2*
X13648Y23001D1*
D2*
X13721Y22782D1*
D2*
Y22637D1*
D2*
X13648Y22418D1*
D2*
X13502Y22272D1*
D2*
X13283Y22199D1*
D2*
X13066D1*
D2*
X12847Y22272D1*
D2*
X12774Y22346D1*
D2*
X12700Y22491D1*
X13429Y27279D2*
Y28809D1*
D2*
X12700Y27790D1*
D2*
X13793D1*
X78702Y38320D2*
X78848Y38465D1*
D2*
X78921Y38684D1*
D2*
Y38976D1*
D2*
X78848Y39195D1*
D2*
X78702Y39341D1*
D2*
X78557D1*
D2*
X78410Y39267D1*
D2*
X78338Y39195D1*
D2*
X78265Y39050D1*
D2*
X78119Y38612D1*
D2*
X78046Y38465D1*
D2*
X77972Y38393D1*
D2*
X77827Y38320D1*
D2*
X77608D1*
D2*
X77463Y38465D1*
D2*
X77389Y38684D1*
D2*
Y38976D1*
D2*
X77463Y39195D1*
D2*
X77608Y39341D1*
X78921Y37850D2*
X78191Y37267D1*
D2*
X77389D1*
X78921Y36684D2*
X78191Y37267D1*
X78921Y36214D2*
X77389D1*
D2*
Y35339D1*
X78921Y34358D2*
X77389D1*
X78921Y34869D2*
Y33848D1*
Y32648D2*
X77755D1*
D2*
X77536Y32720D1*
D2*
X77463Y32794D1*
D2*
X77389Y32939D1*
D2*
Y33086D1*
D2*
X77463Y33231D1*
D2*
X77536Y33303D1*
D2*
X77755Y33377D1*
D2*
X77900D1*
X77389Y31010D2*
X78921Y31594D1*
D2*
X77389Y32177D1*
X77900Y31958D2*
Y31229D1*
X77389Y29373D2*
X78921D1*
D2*
X77389Y29956D1*
D2*
X78921Y30539D1*
D2*
X77389D1*
X78702Y27882D2*
X78848Y28027D1*
D2*
X78921Y28246D1*
D2*
Y28537D1*
D2*
X78848Y28756D1*
D2*
X78702Y28903D1*
D2*
X78557D1*
D2*
X78410Y28829D1*
D2*
X78338Y28756D1*
D2*
X78265Y28611D1*
D2*
X78119Y28173D1*
D2*
X78046Y28027D1*
D2*
X77972Y27954D1*
D2*
X77827Y27882D1*
D2*
X77608D1*
D2*
X77463Y28027D1*
D2*
X77389Y28246D1*
D2*
Y28537D1*
D2*
X77463Y28756D1*
D2*
X77608Y28903D1*
X78921Y27411D2*
X78191Y26828D1*
D2*
X77389D1*
X78921Y26246D2*
X78191Y26828D1*
X78921Y24754D2*
X77389D1*
D2*
X78921Y25775D1*
D2*
X77389D1*
X78921Y23773D2*
X77389D1*
X78921Y24283D2*
Y23263D1*
Y22792D2*
X77389D1*
X78921Y21771D2*
X77389D1*
X78191Y22792D2*
Y21771D1*
X78555Y19745D2*
X78627D1*
D2*
X78774Y19673D1*
D2*
X78846Y19600D1*
D2*
X78919Y19454D1*
D2*
Y19162D1*
D2*
X78846Y19017D1*
D2*
X78774Y18945D1*
D2*
X78627Y18871D1*
D2*
X78483D1*
D2*
X78336Y18945D1*
D2*
X78119Y19090D1*
D2*
X77389Y19819D1*
D2*
Y18798D1*
X78919Y17890D2*
X78846Y18109D1*
D2*
X78627Y18255D1*
D2*
X78264Y18328D1*
D2*
X78045D1*
D2*
X77681Y18255D1*
D2*
X77462Y18109D1*
D2*
X77389Y17890D1*
D2*
Y17745D1*
D2*
X77462Y17526D1*
D2*
X77681Y17381D1*
D2*
X78045Y17307D1*
D2*
X78264D1*
D2*
X78627Y17381D1*
D2*
X78846Y17526D1*
D2*
X78919Y17745D1*
D2*
Y17890D1*
X78627Y17381D2*
X77681Y18255D1*
X78627Y16836D2*
X78702Y16690D1*
D2*
X78919Y16471D1*
D2*
X77389D1*
X78627Y16000D2*
X78702Y15854D1*
D2*
X78919Y15635D1*
D2*
X77389D1*
X3307Y42918D2*
D71*
Y41897D1*
X2967Y42918D2*
X3647D1*
X4544Y42578D2*
Y41897D1*
Y42432D2*
X4447Y42529D1*
D2*
X4350Y42578D1*
D2*
X4205D1*
D2*
X4107Y42529D1*
D2*
X4011Y42432D1*
D2*
X3961Y42286D1*
D2*
Y42189D1*
D2*
X4011Y42043D1*
D2*
X4107Y41947D1*
D2*
X4205Y41897D1*
D2*
X4350D1*
D2*
X4447Y41947D1*
D2*
X4544Y42043D1*
X4858Y42578D2*
Y41557D1*
Y42432D2*
X4955Y42528D1*
D2*
X5052Y42578D1*
D2*
X5198D1*
D2*
X5296Y42528D1*
D2*
X5392Y42432D1*
D2*
X5442Y42286D1*
D2*
Y42188D1*
D2*
X5392Y42043D1*
D2*
X5296Y41945D1*
D2*
X5198Y41897D1*
D2*
X5052D1*
D2*
X4955Y41945D1*
D2*
X4858Y42043D1*
X22850Y36812D2*
D70*
X23505D1*
D2*
X23724Y36886D1*
D2*
X23798Y36959D1*
D2*
X23871Y37104D1*
D2*
Y37250D1*
D2*
X23798Y37395D1*
D2*
X23724Y37469D1*
D2*
X23505Y37542D1*
D2*
X22850D1*
D2*
Y36010D1*
X23360Y36812D2*
X23871Y36010D1*
X24341Y36593D2*
X25216D1*
D2*
Y36740D1*
D2*
X25143Y36886D1*
D2*
X25071Y36959D1*
D2*
X24924Y37031D1*
D2*
X24705D1*
D2*
X24560Y36959D1*
D2*
X24414Y36812D1*
D2*
X24341Y36593D1*
D2*
Y36448D1*
D2*
X24414Y36229D1*
D2*
X24560Y36085D1*
D2*
X24705Y36010D1*
D2*
X24924D1*
D2*
X25071Y36085D1*
D2*
X25216Y36229D1*
X25686Y37031D2*
X26124Y36010D1*
D2*
X26561Y37031D1*
X27104Y36157D2*
X27031Y36083D1*
D2*
X27104Y36010D1*
D2*
X27178Y36083D1*
D2*
X27104Y36157D1*
X29204Y37176D2*
Y37249D1*
D2*
X29276Y37395D1*
D2*
X29349Y37468D1*
D2*
X29495Y37540D1*
D2*
X29787D1*
D2*
X29932Y37468D1*
D2*
X30004Y37395D1*
D2*
X30078Y37249D1*
D2*
Y37104D1*
D2*
X30004Y36957D1*
D2*
X29859Y36740D1*
D2*
X29130Y36010D1*
D2*
X30151D1*
X75056Y1538D2*
Y2194D1*
D2*
X74982Y2413D1*
D2*
X74909Y2487D1*
D2*
X74765Y2559D1*
D2*
X74618D1*
D2*
X74473Y2487D1*
D2*
X74399Y2413D1*
D2*
X74327Y2194D1*
D2*
Y1538D1*
D2*
X75858D1*
X75056Y2049D2*
X75858Y2559D1*
X74327Y11558D2*
X75858D1*
D2*
Y12433D1*
M02*
